<svg width="16" height="16" viewBox="0 0 16 16" fill="none" xmlns="http://www.w3.org/2000/svg">
  <path d="M8.4733 8.93334C8.41132 8.99583 8.33759 9.04543 8.25635 9.07927C8.17511 9.11312 8.08797 9.13054 7.99996 9.13054C7.91196 9.13054 7.82482 9.11312 7.74358 9.07927C7.66234 9.04543 7.58861 8.99583 7.52663 8.93334L4.47329 5.87334C4.41132 5.81086 4.33758 5.76126 4.25634 5.72742C4.1751 5.69357 4.08797 5.67615 3.99996 5.67615C3.91195 5.67615 3.82481 5.69357 3.74357 5.72742C3.66234 5.76126 3.5886 5.81086 3.52663 5.87334C3.40246 5.99825 3.33276 6.16722 3.33276 6.34334C3.33276 6.51947 3.40246 6.68844 3.52663 6.81334L6.58663 9.87335C6.96163 10.2479 7.46996 10.4583 7.99996 10.4583C8.52997 10.4583 9.0383 10.2479 9.4133 9.87335L12.4733 6.81334C12.5965 6.68917 12.6659 6.52157 12.6666 6.34668C12.6671 6.25894 12.6503 6.17196 12.6172 6.09074C12.584 6.00951 12.5351 5.93564 12.4733 5.87334C12.4113 5.81086 12.3376 5.76126 12.2564 5.72742C12.1751 5.69357 12.088 5.67615 12 5.67615C11.912 5.67615 11.8248 5.69357 11.7436 5.72742C11.6623 5.76126 11.5886 5.81086 11.5266 5.87334L8.4733 8.93334Z" fill="#FD9222" />
</svg>